<svg width="119" height="27" viewBox="0 0 119 27" fill="none" xmlns="http://www.w3.org/2000/svg">
<path d="M5.42285 7.15039C7.08105 7.15039 8.29102 7.49023 9.05273 8.16992C9.81445 8.84961 10.1953 9.80176 10.1953 11.0264C10.1953 11.583 10.1074 12.1133 9.93164 12.6172C9.76172 13.1152 9.48047 13.5576 9.08789 13.9443C8.69531 14.3252 8.17676 14.627 7.53223 14.8496C6.89355 15.0723 6.10547 15.1836 5.16797 15.1836H3.79688V20H1.6875V7.15039H5.42285ZM5.28223 8.89941H3.79688V13.4258H4.94824C5.61035 13.4258 6.17285 13.3496 6.63574 13.1973C7.09863 13.0391 7.4502 12.79 7.69043 12.4502C7.93066 12.1104 8.05078 11.6621 8.05078 11.1055C8.05078 10.3613 7.8252 9.80762 7.37402 9.44434C6.92871 9.08105 6.23145 8.89941 5.28223 8.89941ZM18.2014 10.0859C18.3655 10.0859 18.5442 10.0947 18.7376 10.1123C18.9309 10.1299 19.0979 10.1533 19.2386 10.1826L19.0452 12.1162C18.9221 12.0811 18.7698 12.0547 18.5882 12.0371C18.4124 12.0195 18.2542 12.0107 18.1136 12.0107C17.7444 12.0107 17.3929 12.0723 17.0589 12.1953C16.7249 12.3125 16.429 12.4941 16.1712 12.7402C15.9134 12.9805 15.7112 13.2822 15.5647 13.6455C15.4182 14.0088 15.345 14.4307 15.345 14.9111V20H13.2708V10.2705H14.888L15.1692 11.9844H15.2659C15.4593 11.6387 15.6995 11.3223 15.9866 11.0352C16.2737 10.748 16.6018 10.5195 16.971 10.3496C17.346 10.1738 17.7561 10.0859 18.2014 10.0859ZM25.5748 10.0859C26.8052 10.0859 27.7339 10.3584 28.3609 10.9033C28.9937 11.4482 29.3101 12.2979 29.3101 13.4521V20H27.8423L27.4468 18.6201H27.3765C27.1011 18.9717 26.817 19.2617 26.524 19.4902C26.231 19.7188 25.8912 19.8887 25.5045 20C25.1236 20.1172 24.6578 20.1758 24.107 20.1758C23.5269 20.1758 23.0084 20.0703 22.5513 19.8594C22.0943 19.6426 21.7339 19.3145 21.4703 18.875C21.2066 18.4355 21.0748 17.8789 21.0748 17.2051C21.0748 16.2031 21.4468 15.4502 22.191 14.9463C22.941 14.4424 24.0718 14.1641 25.5836 14.1113L27.2711 14.0498V13.54C27.2711 12.8662 27.1129 12.3857 26.7964 12.0986C26.4859 11.8115 26.0464 11.668 25.4781 11.668C24.9918 11.668 24.5201 11.7383 24.063 11.8789C23.606 12.0195 23.1607 12.1924 22.7271 12.3975L22.0591 10.9385C22.5338 10.6865 23.0728 10.4814 23.6763 10.3232C24.2857 10.165 24.9185 10.0859 25.5748 10.0859ZM27.2623 15.3506L26.0054 15.3945C24.9742 15.4297 24.2505 15.6055 23.8345 15.9219C23.4185 16.2383 23.2105 16.6719 23.2105 17.2227C23.2105 17.7031 23.3541 18.0547 23.6412 18.2773C23.9283 18.4941 24.3062 18.6025 24.775 18.6025C25.4898 18.6025 26.0816 18.4004 26.5504 17.9961C27.025 17.5859 27.2623 16.9854 27.2623 16.1943V15.3506ZM35.6991 24.3242C34.3807 24.3242 33.37 24.0869 32.6668 23.6123C31.9637 23.1377 31.6121 22.4727 31.6121 21.6172C31.6121 21.0195 31.7996 20.5127 32.1746 20.0967C32.5496 19.6865 33.0858 19.4023 33.783 19.2441C33.5194 19.127 33.2909 18.9453 33.0975 18.6992C32.91 18.4473 32.8162 18.1689 32.8162 17.8643C32.8162 17.501 32.9188 17.1904 33.1239 16.9326C33.3289 16.6748 33.6366 16.4258 34.0467 16.1855C33.537 15.9688 33.1268 15.6172 32.8162 15.1309C32.5116 14.6387 32.3592 14.0615 32.3592 13.3994C32.3592 12.6963 32.5086 12.0986 32.8075 11.6064C33.1063 11.1084 33.5428 10.7305 34.117 10.4727C34.6912 10.209 35.3856 10.0771 36.2 10.0771C36.3758 10.0771 36.5662 10.0889 36.7713 10.1123C36.9823 10.1299 37.1756 10.1533 37.3514 10.1826C37.533 10.2061 37.6707 10.2324 37.7645 10.2617H41.1307V11.4131L39.4784 11.7207C39.6366 11.9434 39.7625 12.1982 39.8563 12.4854C39.95 12.7666 39.9969 13.0742 39.9969 13.4082C39.9969 14.416 39.6483 15.21 38.951 15.79C38.2596 16.3643 37.3045 16.6514 36.0858 16.6514C35.7928 16.6396 35.5086 16.6162 35.2332 16.5811C35.0223 16.71 34.8612 16.8535 34.7498 17.0117C34.6385 17.1641 34.5829 17.3369 34.5829 17.5303C34.5829 17.6885 34.6385 17.8174 34.7498 17.917C34.8612 18.0107 35.0252 18.0811 35.242 18.1279C35.4647 18.1748 35.7342 18.1982 36.0506 18.1982H37.7293C38.7957 18.1982 39.6102 18.4238 40.1727 18.875C40.7352 19.3262 41.0164 19.9883 41.0164 20.8613C41.0164 21.9688 40.5594 22.8213 39.6454 23.4189C38.7313 24.0225 37.4159 24.3242 35.6991 24.3242ZM35.7782 22.874C36.4989 22.874 37.1053 22.8037 37.5975 22.6631C38.0897 22.5225 38.4618 22.3203 38.7137 22.0566C38.9657 21.7988 39.0916 21.4912 39.0916 21.1338C39.0916 20.8174 39.0125 20.5742 38.8543 20.4043C38.6961 20.2344 38.4588 20.1172 38.1424 20.0527C37.826 19.9883 37.4334 19.9561 36.9647 19.9561H35.4354C35.0545 19.9561 34.7176 20.0146 34.4246 20.1318C34.1317 20.2549 33.9032 20.4307 33.7391 20.6592C33.5809 20.8877 33.5018 21.1631 33.5018 21.4854C33.5018 21.9307 33.6981 22.2734 34.0907 22.5137C34.4891 22.7539 35.0516 22.874 35.7782 22.874ZM36.1825 15.2979C36.786 15.2979 37.2342 15.1338 37.5272 14.8057C37.8202 14.4717 37.9666 14.0029 37.9666 13.3994C37.9666 12.7432 37.8143 12.251 37.5096 11.9229C37.2108 11.5947 36.7655 11.4307 36.1737 11.4307C35.5936 11.4307 35.1512 11.5977 34.8465 11.9316C34.5477 12.2656 34.3983 12.7607 34.3983 13.417C34.3983 14.0088 34.5477 14.4717 34.8465 14.8057C35.1512 15.1338 35.5965 15.2979 36.1825 15.2979ZM47.4405 10.0859C48.671 10.0859 49.5997 10.3584 50.2267 10.9033C50.8595 11.4482 51.1759 12.2979 51.1759 13.4521V20H49.7081L49.3126 18.6201H49.2423C48.9669 18.9717 48.6827 19.2617 48.3898 19.4902C48.0968 19.7188 47.757 19.8887 47.3702 20C46.9894 20.1172 46.5236 20.1758 45.9728 20.1758C45.3927 20.1758 44.8741 20.0703 44.4171 19.8594C43.9601 19.6426 43.5997 19.3145 43.3361 18.875C43.0724 18.4355 42.9405 17.8789 42.9405 17.2051C42.9405 16.2031 43.3126 15.4502 44.0568 14.9463C44.8068 14.4424 45.9376 14.1641 47.4493 14.1113L49.1368 14.0498V13.54C49.1368 12.8662 48.9786 12.3857 48.6622 12.0986C48.3517 11.8115 47.9122 11.668 47.3439 11.668C46.8575 11.668 46.3859 11.7383 45.9288 11.8789C45.4718 12.0195 45.0265 12.1924 44.5929 12.3975L43.9249 10.9385C44.3995 10.6865 44.9386 10.4814 45.5421 10.3232C46.1515 10.165 46.7843 10.0859 47.4405 10.0859ZM49.128 15.3506L47.8712 15.3945C46.84 15.4297 46.1163 15.6055 45.7003 15.9219C45.2843 16.2383 45.0763 16.6719 45.0763 17.2227C45.0763 17.7031 45.2198 18.0547 45.507 18.2773C45.7941 18.4941 46.172 18.6025 46.6407 18.6025C47.3556 18.6025 47.9474 18.4004 48.4161 17.9961C48.8907 17.5859 49.128 16.9854 49.128 16.1943V15.3506ZM58.057 20.1758C56.8969 20.1758 55.9652 19.7539 55.2621 18.9102C54.5648 18.0605 54.2162 16.8096 54.2162 15.1572C54.2162 13.4873 54.5707 12.2246 55.2797 11.3691C55.9945 10.5137 56.935 10.0859 58.101 10.0859C58.5932 10.0859 59.0238 10.1533 59.393 10.2881C59.7621 10.417 60.0785 10.5928 60.3422 10.8154C60.6117 11.0381 60.8402 11.2871 61.0277 11.5625H61.1244C61.0951 11.3809 61.06 11.1201 61.0189 10.7803C60.9838 10.4346 60.9662 10.1152 60.9662 9.82227V6.32422H63.0404V20H61.4232L61.0541 18.6729H60.9662C60.7904 18.9541 60.5678 19.209 60.2982 19.4375C60.0346 19.6602 59.7182 19.8389 59.349 19.9736C58.9857 20.1084 58.5551 20.1758 58.057 20.1758ZM58.6371 18.4971C59.5219 18.4971 60.1459 18.2422 60.5092 17.7324C60.8725 17.2227 61.06 16.458 61.0717 15.4385V15.166C61.0717 14.0762 60.8959 13.2412 60.5443 12.6611C60.1928 12.0752 59.5512 11.7822 58.6195 11.7822C57.8754 11.7822 57.307 12.084 56.9145 12.6875C56.5277 13.2852 56.3344 14.1201 56.3344 15.1924C56.3344 16.2646 56.5277 17.085 56.9145 17.6533C57.307 18.2158 57.8812 18.4971 58.6371 18.4971ZM70.5983 10.0859C71.4655 10.0859 72.2096 10.2646 72.8307 10.6221C73.4518 10.9795 73.9294 11.4863 74.2634 12.1426C74.5973 12.7988 74.7643 13.584 74.7643 14.498V15.6055H68.2692C68.2927 16.5488 68.5446 17.2754 69.0251 17.7852C69.5114 18.2949 70.1911 18.5498 71.0641 18.5498C71.6852 18.5498 72.2419 18.4912 72.7341 18.374C73.2321 18.251 73.7448 18.0723 74.2721 17.8379V19.5166C73.7858 19.7451 73.2907 19.9121 72.7868 20.0176C72.2829 20.123 71.6794 20.1758 70.9762 20.1758C70.0212 20.1758 69.1804 19.9912 68.4538 19.6221C67.7331 19.2471 67.1677 18.6904 66.7575 17.9521C66.3532 17.2139 66.1511 16.2969 66.1511 15.2012C66.1511 14.1113 66.3356 13.1855 66.7048 12.4238C67.0739 11.6621 67.5925 11.082 68.2604 10.6836C68.9284 10.2852 69.7077 10.0859 70.5983 10.0859ZM70.5983 11.6416C69.9479 11.6416 69.4206 11.8525 69.0163 12.2744C68.6179 12.6963 68.3835 13.3145 68.3132 14.1289H72.7429C72.737 13.6426 72.655 13.2119 72.4968 12.8369C72.3444 12.4619 72.11 12.1689 71.7936 11.958C71.4831 11.7471 71.0846 11.6416 70.5983 11.6416ZM84.3525 17.2227C84.3525 17.8613 84.1972 18.4004 83.8867 18.8398C83.5761 19.2793 83.122 19.6133 82.5244 19.8418C81.9326 20.0645 81.206 20.1758 80.3447 20.1758C79.665 20.1758 79.0791 20.126 78.5869 20.0264C78.1005 19.9326 77.6406 19.7861 77.207 19.5869V17.8027C77.6699 18.0195 78.1884 18.207 78.7627 18.3652C79.3427 18.5234 79.8906 18.6025 80.4062 18.6025C81.0859 18.6025 81.5752 18.4971 81.874 18.2861C82.1728 18.0693 82.3222 17.7822 82.3222 17.4248C82.3222 17.2139 82.2607 17.0264 82.1377 16.8623C82.0205 16.6924 81.7978 16.5195 81.4697 16.3438C81.1474 16.1621 80.6728 15.9453 80.0459 15.6934C79.4306 15.4473 78.9121 15.2012 78.4902 14.9551C78.0683 14.709 77.749 14.4131 77.5322 14.0674C77.3154 13.7158 77.207 13.2676 77.207 12.7227C77.207 11.8613 77.5468 11.208 78.2265 10.7627C78.9121 10.3115 79.8173 10.0859 80.9423 10.0859C81.54 10.0859 82.1025 10.1475 82.6298 10.2705C83.163 10.3877 83.6845 10.5605 84.1943 10.7891L83.5439 12.3447C83.1045 12.1514 82.6621 11.9932 82.2168 11.8701C81.7773 11.7412 81.3291 11.6768 80.872 11.6768C80.3388 11.6768 79.9316 11.7588 79.6504 11.9229C79.375 12.0869 79.2373 12.3213 79.2373 12.626C79.2373 12.8545 79.3046 13.0479 79.4394 13.2061C79.5742 13.3643 79.8056 13.5225 80.1338 13.6807C80.4677 13.8389 80.9306 14.0352 81.5224 14.2695C82.1025 14.4922 82.6035 14.7266 83.0254 14.9727C83.4531 15.2129 83.7812 15.5088 84.0097 15.8604C84.2382 16.2119 84.3525 16.666 84.3525 17.2227ZM89.3704 6.32422V9.76074C89.3704 10.1182 89.3586 10.4668 89.3352 10.8066C89.3176 11.1465 89.2971 11.4102 89.2737 11.5977H89.3879C89.593 11.2578 89.845 10.9795 90.1438 10.7627C90.4426 10.54 90.7766 10.373 91.1457 10.2617C91.5207 10.1504 91.9192 10.0947 92.3411 10.0947C93.0852 10.0947 93.718 10.2207 94.2395 10.4727C94.761 10.7188 95.1594 11.1025 95.4348 11.624C95.7161 12.1455 95.8567 12.8223 95.8567 13.6543V20H93.7913V14.041C93.7913 13.2852 93.636 12.7197 93.3254 12.3447C93.0149 11.9639 92.5344 11.7734 91.884 11.7734C91.2571 11.7734 90.759 11.9053 90.3899 12.1689C90.0266 12.4268 89.7659 12.8105 89.6077 13.3203C89.4495 13.8242 89.3704 14.4395 89.3704 15.166V20H87.3049V6.32422H89.3704ZM115.138 20H112.713L108.714 14.1641L107.448 15.1924V20H105.339V7.15039H107.448V13.2939C107.706 12.9775 107.967 12.6611 108.23 12.3447C108.494 12.0283 108.758 11.7119 109.021 11.3955L112.642 7.15039H115.024L110.225 12.7754L115.138 20Z" fill="#2a293b"/>
<path d="M99.1695 18.9102C99.1695 18.4297 99.2925 18.0928 99.5386 17.8994C99.7906 17.7002 100.095 17.6006 100.453 17.6006C100.81 17.6006 101.115 17.7002 101.367 17.8994C101.625 18.0928 101.753 18.4297 101.753 18.9102C101.753 19.3789 101.625 19.7188 101.367 19.9297C101.115 20.1348 100.81 20.2373 100.453 20.2373C100.095 20.2373 99.7906 20.1348 99.5386 19.9297C99.2925 19.7188 99.1695 19.3789 99.1695 18.9102Z" fill="#FC7424"/>
</svg>
